HIERARCHY
ROOT hips
{
  OFFSET 0 9.313263304106702 1.2146308026317778
  CHANNELS 6 Xposition Yposition Zposition Yrotation Xrotation Zrotation
  JOINT spine
  {
    OFFSET -6.402521e-31 0.5173342420023708 0
    CHANNELS 3 Yrotation Xrotation Zrotation
    JOINT chest
    {
      OFFSET 0 1.130544299341115 0
      CHANNELS 3 Yrotation Xrotation Zrotation
      JOINT upperChest
      {
        OFFSET 0 1.0863555061129995 0
        CHANNELS 3 Yrotation Xrotation Zrotation
        JOINT neck
        {
          OFFSET 0 1.3773706506454462 0
          CHANNELS 3 Yrotation Xrotation Zrotation
          JOINT head
          {
            OFFSET 0 0.7374408940073979 0
            CHANNELS 3 Yrotation Xrotation Zrotation
            JOINT leftEye
            {
              OFFSET 0.25066580148932727 0.6408406698778757 0.15963719178883284
              CHANNELS 3 Yrotation Xrotation Zrotation
              End Site
              {
                OFFSET 0.25066580148932727 0.6408406698778757 0.15963719178883284
              }
            }
            JOINT rightEye
            {
              OFFSET -0.25066576739704244 0.6408406384191823 0.15963727561643756
              CHANNELS 3 Yrotation Xrotation Zrotation
              End Site
              {
                OFFSET -0.25066576739704244 0.6408406384191823 0.15963727561643756
              }
            }
          }
        }
        JOINT leftShoulder
        {
          OFFSET 0.3761817444281191 1.0539491987447769 0
          CHANNELS 3 Yrotation Xrotation Zrotation
          JOINT leftUpperArm
          {
            OFFSET 0.8702844380000002 0 0
            CHANNELS 3 Yrotation Xrotation Zrotation
            JOINT leftLowerArm
            {
              OFFSET 2.198527310000323 0 0
              CHANNELS 3 Yrotation Xrotation Zrotation
              JOINT leftHand
              {
                OFFSET 2.146852313968281 0 0
                CHANNELS 3 Yrotation Xrotation Zrotation
                JOINT leftIndexProximal
                {
                  OFFSET 0.6585177834681599 0.07380250427007962 0.18382213159631788
                  CHANNELS 3 Yrotation Xrotation Zrotation
                  JOINT leftIndexIntermediate
                  {
                    OFFSET 0.3323021288626682 -0.009606893929485771 -0.012820872253340998
                    CHANNELS 3 Yrotation Xrotation Zrotation
                    JOINT leftIndexDistal
                    {
                      OFFSET 0.2045908926985518 -0.0071133989147997845 -0.006828784783599051
                      CHANNELS 3 Yrotation Xrotation Zrotation
                      End Site
                      {
                        OFFSET 0.2045908926985518 -0.0071133989147997845 -0.006828784783599051
                      }
                    }
                  }
                }
                JOINT leftLittleProximal
                {
                  OFFSET 0.6110054258835662 0.07380246363125398 -0.29175655876064077
                  CHANNELS 3 Yrotation Xrotation Zrotation
                  JOINT leftLittleIntermediate
                  {
                    OFFSET 0.3144281999999998 -2.5124724523095665e-9 1.8658118799974588e-7
                    CHANNELS 3 Yrotation Xrotation Zrotation
                    JOINT leftLittleDistal
                    {
                      OFFSET 0.18116185580251631 0.002815456192251098 0.0034826415518049436
                      CHANNELS 3 Yrotation Xrotation Zrotation
                      End Site
                      {
                        OFFSET 0.18116185580251631 0.002815456192251098 0.0034826415518049436
                      }
                    }
                  }
                }
                JOINT leftMiddleProximal
                {
                  OFFSET 0.6637478005691111 0.07380246480054087 0.02046981859247815
                  CHANNELS 3 Yrotation Xrotation Zrotation
                  JOINT leftMiddleIntermediate
                  {
                    OFFSET 0.3705733999999994 -2.9611069152224445e-9 9.35054791928458e-8
                    CHANNELS 3 Yrotation Xrotation Zrotation
                    JOINT leftMiddleDistal
                    {
                      OFFSET 0.22861063500000056 -1.82673876025774e-9 -1.6740782024515788e-7
                      CHANNELS 3 Yrotation Xrotation Zrotation
                      End Site
                      {
                        OFFSET 0.22861063500000056 -1.82673876025774e-9 -1.6740782024515788e-7
                      }
                    }
                  }
                }
                JOINT leftRingProximal
                {
                  OFFSET 0.6561845547265777 0.07380246406440083 -0.13588087571513918
                  CHANNELS 3 Yrotation Xrotation Zrotation
                  JOINT leftRingIntermediate
                  {
                    OFFSET 0.3437531000000005 -2.746796123886952e-9 1.4935781944558357e-7
                    CHANNELS 3 Yrotation Xrotation Zrotation
                    JOINT leftRingDistal
                    {
                      OFFSET 0.1983118991198174 -0.002467117924596085 -0.004538141969590015
                      CHANNELS 3 Yrotation Xrotation Zrotation
                      End Site
                      {
                        OFFSET 0.1983118991198174 -0.002467117924596085 -0.004538141969590015
                      }
                    }
                  }
                }
                JOINT leftThumbProximal
                {
                  OFFSET 0.09767004258864787 -0.14930060425447422 -0.07008212897521154
                  CHANNELS 3 Yrotation Xrotation Zrotation
                  JOINT leftThumbIntermediate
                  {
                    OFFSET 0.36682123028154767 -0.015768465060082004 0.28693641268151077
                    CHANNELS 3 Yrotation Xrotation Zrotation
                    JOINT leftThumbDistal
                    {
                      OFFSET 0.21091084272403915 -0.016756648201192714 0.1933767059105508
                      CHANNELS 3 Yrotation Xrotation Zrotation
                      End Site
                      {
                        OFFSET 0.21091084272403915 -0.016756648201192714 0.1933767059105508
                      }
                    }
                  }
                }
              }
            }
          }
        }
        JOINT rightShoulder
        {
          OFFSET -0.37618174442811925 1.0539491987447769 0
          CHANNELS 3 Yrotation Xrotation Zrotation
          JOINT rightUpperArm
          {
            OFFSET -0.870284438 0 0
            CHANNELS 3 Yrotation Xrotation Zrotation
            JOINT rightLowerArm
            {
              OFFSET -2.1985273100003235 0 0
              CHANNELS 3 Yrotation Xrotation Zrotation
              JOINT rightHand
              {
                OFFSET -2.1468523139682802 0 0
                CHANNELS 3 Yrotation Xrotation Zrotation
                JOINT rightIndexProximal
                {
                  OFFSET -0.6585177834681599 0.07380250427007962 0.18382213159631788
                  CHANNELS 3 Yrotation Xrotation Zrotation
                  JOINT rightIndexIntermediate
                  {
                    OFFSET -0.3323021288626682 -0.009606893929485771 -0.012820872253340998
                    CHANNELS 3 Yrotation Xrotation Zrotation
                    JOINT rightIndexDistal
                    {
                      OFFSET -0.2045908926985518 -0.0071133989147997845 -0.006828784783599051
                      CHANNELS 3 Yrotation Xrotation Zrotation
                      End Site
                      {
                        OFFSET -0.2045908926985518 -0.0071133989147997845 -0.006828784783599051
                      }
                    }
                  }
                }
                JOINT rightLittleProximal
                {
                  OFFSET -0.6110054258835662 0.07380246363125398 -0.29175655876064077
                  CHANNELS 3 Yrotation Xrotation Zrotation
                  JOINT rightLittleIntermediate
                  {
                    OFFSET -0.3144281999999998 -2.5124724523095665e-9 1.8658118799974588e-7
                    CHANNELS 3 Yrotation Xrotation Zrotation
                    JOINT rightLittleDistal
                    {
                      OFFSET -0.18116185580251631 0.002815456192251098 0.0034826415518049436
                      CHANNELS 3 Yrotation Xrotation Zrotation
                      End Site
                      {
                        OFFSET -0.18116185580251631 0.002815456192251098 0.0034826415518049436
                      }
                    }
                  }
                }
                JOINT rightMiddleProximal
                {
                  OFFSET -0.6637478005691111 0.07380246480054087 0.02046981859247815
                  CHANNELS 3 Yrotation Xrotation Zrotation
                  JOINT rightMiddleIntermediate
                  {
                    OFFSET -0.3705733999999994 -2.9611069152224445e-9 9.35054791928458e-8
                    CHANNELS 3 Yrotation Xrotation Zrotation
                    JOINT rightMiddleDistal
                    {
                      OFFSET -0.22861063500000056 -1.82673876025774e-9 -1.6740782024515788e-7
                      CHANNELS 3 Yrotation Xrotation Zrotation
                      End Site
                      {
                        OFFSET -0.22861063500000056 -1.82673876025774e-9 -1.6740782024515788e-7
                      }
                    }
                  }
                }
                JOINT rightRingProximal
                {
                  OFFSET -0.6561845547265777 0.07380246406440083 -0.13588087571513918
                  CHANNELS 3 Yrotation Xrotation Zrotation
                  JOINT rightRingIntermediate
                  {
                    OFFSET -0.3437531000000005 -2.746796123886952e-9 1.4935781944558357e-7
                    CHANNELS 3 Yrotation Xrotation Zrotation
                    JOINT rightRingDistal
                    {
                      OFFSET -0.1983118991198174 -0.002467117924596085 -0.004538141969590015
                      CHANNELS 3 Yrotation Xrotation Zrotation
                      End Site
                      {
                        OFFSET -0.1983118991198174 -0.002467117924596085 -0.004538141969590015
                      }
                    }
                  }
                }
                JOINT rightThumbProximal
                {
                  OFFSET -0.09767004258864787 -0.14930060425447422 -0.07008212897521154
                  CHANNELS 3 Yrotation Xrotation Zrotation
                  JOINT rightThumbIntermediate
                  {
                    OFFSET -0.36682123028154767 -0.015768465060082004 0.28693641268151077
                    CHANNELS 3 Yrotation Xrotation Zrotation
                    JOINT rightThumbDistal
                    {
                      OFFSET -0.21091084272403915 -0.016756648201192714 0.1933767059105508
                      CHANNELS 3 Yrotation Xrotation Zrotation
                      End Site
                      {
                        OFFSET -0.21091084272403915 -0.016756648201192714 0.1933767059105508
                      }
                    }
                  }
                }
              }
            }
          }
        }
      }
    }
  }
  JOINT leftUpperLeg
  {
    OFFSET 0.7715603 -0.3993844658041501 0
    CHANNELS 3 Yrotation Xrotation Zrotation
    JOINT leftLowerLeg
    {
      OFFSET 0 -3.529830000249343 0
      CHANNELS 3 Yrotation Xrotation Zrotation
      JOINT leftFoot
      {
        OFFSET 0 -4.154939295409685 0.004208579085223096
        CHANNELS 3 Yrotation Xrotation Zrotation
        JOINT leftToes
        {
          OFFSET 0 -0.6353414391261847 1.10414981190622
          CHANNELS 3 Yrotation Xrotation Zrotation
          End Site
          {
            OFFSET 0 -0.6015820691747853 1.10414981190622
          }
        }
      }
    }
  }
  JOINT rightUpperLeg
  {
    OFFSET -0.7715603 -0.3993844658041501 0
    CHANNELS 3 Yrotation Xrotation Zrotation
    JOINT rightLowerLeg
    {
      OFFSET 0 -3.529830000249343 0
      CHANNELS 3 Yrotation Xrotation Zrotation
      JOINT rightFoot
      {
        OFFSET 0 -4.154939295409685 0.004208579085223096
        CHANNELS 3 Yrotation Xrotation Zrotation
        JOINT rightToes
        {
          OFFSET 0 -0.6353414391261847 1.10414981190622
          CHANNELS 3 Yrotation Xrotation Zrotation
          End Site
          {
            OFFSET 0 -0.6015820691747853 1.10414981190622
          }
        }
      }
    }
  }
}
MOTION
Frames: 4
Frame Time: 0.03333333333333333
-0.10922066190026024 9.444758675315162 1.2369169183540005 -0.3336737866535226 -9.678498471899838 -1.137116187691359 0.14556974914201834 4.093550533947072 -0.036637447617735644 0.2207573316127033 7.363121117196473 0.45148787142165164 0 0 0 0.07229283890434157 -0.15613548954626405 4.127264263637797 1.3309295562685433 -4.483770469294804 -2.834572270731798 0 0 0 0 0 0 -3.169209217258645 -0.49609217610131867 -10.378614275305925 -36.32980661789015 23.24707686734568 -68.38954336302437 -23.982722045961566 -9.57883535130197 8.645052053211073 1.0538646543463892 0.4011883930547152 -11.525338211284035 -10.204024894306635 5.2980380182480005 -12.136594624655597 4.8472722388256315 0.0067115146485322505 0.8554019405257779 0.5389359239904559 -0.15540509683281015 1.3023098568144735 -9.296751412980385 -3.6521440846761157 -16.796821792250892 5.9948971453614925 -1.9520198442966321 -2.5120758408325403 4.258011404469555 -0.31794077439003937 5.746930924854264 -10.646475157648712 2.929148411039253 -19.66569770035764 4.091346917546483 -0.745863582542135 1.2609375320856926 1.706754878508669 -0.7107974925340339 4.9900981396055695 -6.086171023713354 -1.8956210626922985 -21.274545725890558 4.310280605294453 -2.086823101273886 2.2691736584345605 2.004296217464744 -0.7804208955158694 4.136453497859473 -0.6742872854235689 2.0917073720705694 5.626395849046112 -0.07339629456570766 0.4976200614892209 -0.7441454417899784 -4.763577587688605 -0.881756144767639 3.3319062694651187 4.568082566903898 -0.47769418375603184 15.789010620271995 20.083259965028734 16.756059285687066 65.23166675393315 23.68638520940365 -1.6853562459834417 -5.173831429191838 -26.101519536518747 -4.865748929530262 14.847670960605656 6.474477692517918 7.872279325568973 11.405278605040845 -0.7803577128274499 -0.5629468988537487 -0.8528909663346941 0.6014947465122429 0.7609945068330852 3.4389658870843953 8.356144110056011 2.7597396209100644 13.137084004315557 -4.071801329923422 -2.544938989613667 2.422832812841075 -3.042753599029821 -0.8483320058711875 -5.868411450976437 6.400330118604647 6.085948092572591 19.478393356672978 -0.6224748852284454 -1.501311620838604 -1.3361403706949198 0.05754214076472242 0.1665930309010596 0.5904464699367905 5.4846314918410055 4.070556425469835 20.957254415723877 -2.3406128358477516 -3.2106574357713633 -2.4750626655843453 -0.18915152613501698 -0.14290878315032512 -0.49401070012557546 0.08129719687420722 6.469892773635327 -4.9406052263241165 -5.57558005650409 4.86528065481706 4.528662926925757 -1.6665276521031607 0.31221997756960557 0.8583994294091157 3.043201467464874 10.770051529481911 8.301882846639609 0.12984726337684288 4.420869694238947 0.05448585009920402 4.549714020062199 -6.50342510457435 -8.754227384683542 -0.3582386692914225 1.5289609291407924 0.1347084424149615 0.9256881231258333 12.98515733557453 -3.6630716093694144 -0.09087392249567386 0.1659375701047932 0.19197853726761 -2.534479052153544 -4.745429232893582 6.512163305993051 0.19021302505445467 1.0918179207470573 0.04775563065745373
-0.10904237627983093 9.444671977650033 1.2372942394618216 -0.34493298655914023 -9.687738166447824 -1.1364182783367673 0.14606005805788755 4.097318895023454 -0.038141928906357724 0.2204341283182542 7.368679805936702 0.44955456953509726 0 0 0 0.06473749091960133 -0.17145374550356515 4.137793273138477 1.3210838368122488 -4.463499461056826 -2.8261841918754667 0 0 0 0 0 0 -3.1676167891433327 -0.49548207862939314 -10.373281657846364 -36.3344345125275 23.2577595553496 -68.40820958701623 -23.9552781393613 -9.58757704141385 8.633056321450384 1.0771651133562805 0.39115844736399424 -11.474235500759278 -10.16066221179093 5.310473977190758 -12.100108356273687 4.794361987222664 0.01079543004337975 0.8564406420296536 0.5305016526363682 -0.15369720982153032 1.281599767925013 -9.346237626910455 -3.5990577645269743 -16.742802958202688 5.936371218542739 -1.9315072527195933 -2.510635059521479 4.222770451955329 -0.3135425727090859 5.69927144912453 -10.435255649151125 2.9527782638278235 -19.50718904646327 4.038327599917734 -0.7325096648169556 1.2643686477040168 1.709992439427201 -0.7114226630751025 5.000089545373761 -6.133347273103649 -1.835497828528829 -21.202314366113587 4.259028451670488 -2.056102178882571 2.2716322527447415 1.9614351263536625 -0.7619587692422336 4.047011555736127 -0.6419158746124994 2.120813824640776 5.575895510790645 -0.14746187293078009 0.505523426804593 -0.7566692802695368 -4.722496683639684 -0.8753729027292715 3.303005588183002 4.5725369544100225 -0.4777480267281428 15.802433939554293 20.067149424024997 16.74926695782475 65.220027246419 23.688126957717135 -1.6733775658034504 -5.173975312468987 -26.112308728945475 -4.866530387782665 14.863916752805245 6.469267391771363 7.8681301775967505 11.401999477719809 -0.7781835161579682 -0.5632432793438249 -0.8509800377883535 0.6008535383194845 0.7583738850795883 3.419725685077197 8.36778997491658 2.7597287226565084 13.139761963356209 -4.065601930718099 -2.5406567268308353 2.4218986247953387 -3.0464231233391597 -0.8452920795954978 -5.883781353664743 6.399526381662865 6.079800889315242 19.458952544762184 -0.622453224577948 -1.5127910564999973 -1.3331980944433581 0.051916259454320185 0.16024794611264032 0.5573442014295498 5.488570545007987 4.06785467802876 20.960601129677052 -2.3403216248877685 -3.2140727742568798 -2.472669922054585 -0.19038964508879877 -0.14863914365005731 -0.5027245714273901 0.08315801668844161 6.468485760254122 -4.939638997683024 -5.573993359075471 4.865647819866531 4.529823258391741 -1.666300114962919 0.31226704254074433 0.8582320549084772 3.054598474520088 10.782617855312168 8.306873750336514 0.1298540862931616 4.424169964356464 0.0545793936683083 4.53897648048724 -6.532164892926889 -8.817580945093496 -0.36956955571793615 1.5771247331006242 0.13581726467283894 0.9155252515477385 12.99120216822938 -3.663450190694536 -0.09050521440191933 0.17468179834561912 0.19245718182789154 -2.507504613297703 -4.755720971224196 6.519206167129501 0.1898835013531908 1.0956142765876336 0.047425236418457535
-0.10908161374655637 9.444617358121004 1.237752824390876 -0.35916862414633066 -9.715771474515492 -1.1423199803287023 0.14614032723875486 4.112221321548463 -0.047679907932368405 0.21178561874321997 7.382315546817381 0.44528340930464494 0 0 0 0.052480542526085514 -0.21155028898330264 4.155181636474988 1.302289619886691 -4.407643927746146 -2.8234212193249237 0 0 0 0 0 0 -3.174696323962841 -0.49600802288243956 -10.35164627649192 -36.32584383573171 23.26048240238029 -68.46538935203031 -23.91852950291905 -9.599193724694802 8.617676399420143 1.128839543642947 0.3756805986100185 -11.405098061215051 -10.0909139934038 5.332392606933055 -12.09882487940637 4.742304429489469 0.013329932207353713 0.8560776733124215 0.5373974751805523 -0.1580951208756846 1.297563859732618 -9.41080888618808 -3.5437220287508966 -16.685852064221407 5.893842170582276 -1.915560874440633 -2.5052819456847724 4.158718368564602 -0.3056182903345835 5.612658822086691 -10.361688207919954 2.9524429259474383 -19.41004500378082 3.9615824488750815 -0.7134806834704095 1.2693609181755823 1.6766449010359175 -0.6979483487546974 4.9001166813611245 -6.061607018305492 -1.7850737618529726 -21.05381423192424 4.225396968808198 -2.0358437295962983 2.2740005918707253 1.984301909818288 -0.7716511420744416 4.094191323901226 -0.6033244122482906 2.156516187260232 5.49035440966797 -0.18525895852216773 0.5249283520078966 -0.7889652943789208 -4.728124971842942 -0.8762487633696057 3.306970902393407 4.5898124964912475 -0.483400954166641 15.810197945220896 20.098431566744377 16.744939181961033 65.20305811654565 23.65998062245616 -1.6804585953697817 -5.168391140485324 -26.123465108608794 -4.875416111814441 14.84901864073327 6.458937181332367 7.865746203175579 11.393246613080011 -0.7756528308913928 -0.5637969249701861 -0.8470795869155658 0.6009931538935117 0.759471987678452 3.4169374916628112 8.392522969363046 2.755023891816542 13.146510557081076 -4.062987522063752 -2.5389128887203087 2.4217129300798645 -3.043360618906974 -0.8435519532848299 -5.879179747205625 6.36823839743475 6.082882853585534 19.444167136905147 -0.6198287060342225 -1.5100879224312964 -1.330671018940233 0.04783594343106621 0.14516335301028155 0.5397249592371336 5.511263245771219 4.081668650171036 20.96360917536024 -2.3398788940790367 -3.217698911668944 -2.4675379573577527 -0.18701365730625008 -0.15228435614252264 -0.49805880536171415 0.0810091156654953 6.471183362789749 -4.941116306719976 -5.550178730274078 4.867731710243163 4.544185888187667 -1.665956839354282 0.31288240905353665 0.8577003679332139 3.0755067377743113 10.807179285742393 8.320466723010759 0.13021972750339927 4.435984778005929 0.05492963092884457 4.528014618017165 -6.536510657063349 -8.834800147547456 -0.36465127326578894 1.5562362891936166 0.13558085694592897 0.9269641479469011 13.010145466392176 -3.6633818469160846 -0.09007366012280123 0.18933548289674001 0.19390743484033698 -2.517626974588384 -4.740818004784494 6.4991049917489 0.18857448176400607 1.0711066986272024 0.047341754573314854
-0.10864322158423335 9.444541931152342 1.237884718293893 -0.37731739851562485 -9.74364860377764 -1.147739621272437 0.1460579331587755 4.1307675709664515 -0.055923239625983875 0.20721846174870348 7.396228068839207 0.4412267785068053 0 0 0 0.04305143828111121 -0.1875801814858373 4.164541327059135 1.2973772627318725 -4.457137937221274 -2.798689024180917 0 0 0 0 0 0 -3.189331467225822 -0.4978857018389703 -10.343147283341 -36.28299702515799 23.258934182878725 -68.49121592994254 -23.884430884190966 -9.508298753368583 8.612087415765064 1.1127727983041855 0.37980993791383344 -11.454619832707692 -10.040393496440192 5.32657631665335 -12.094841280598947 4.727355581973859 0.016682442131250957 0.854843105956634 0.5606143852462858 -0.16768090323753515 1.3548102187414812 -9.456480038160768 -3.5283478857571677 -16.653049006709466 5.8781663361304926 -1.9101906337908316 -2.503407552430368 4.1410070421107905 -0.3034575988385924 5.588708583626749 -10.37270175948742 2.946392328034443 -19.374988978878385 3.9477832100740056 -0.7099232144877844 1.2684653035763915 1.6682845919375007 -0.6926143253316702 4.8758954144764015 -6.050880484092719 -1.7750328072152453 -20.97154937413847 4.222759842886583 -2.0339546313256265 2.2746696339164445 2.00718345404703 -0.7833198336815581 4.14925081723691 -0.6023197332793473 2.146204511425863 5.448625130423041 -0.22505427831781166 0.5274568025663765 -0.7987481491333707 -4.770123615488048 -0.882697488441686 3.3365420579879443 4.5751568133977 -0.48059882326753317 15.814117005426345 20.143880489792043 16.711516799150477 65.20311822080397 23.614635017912974 -1.7429416226105139 -5.160783332595889 -26.10403153323087 -4.884129719471682 14.816091518360293 6.471560558548137 7.884040067425034 11.419469926233198 -0.7760659185290367 -0.5642227652082535 -0.8430836280492436 0.6021650050916346 0.7654638747922854 3.4411795137033403 8.379938406984616 2.7547396836183173 13.115687378867635 -4.049954558338546 -2.529890989010884 2.419643835501002 -3.047572002359292 -0.8449886901421695 -5.884316685826748 6.3486966941408385 6.078066084766906 19.412330355525025 -0.6166769672465333 -1.508226156810837 -1.327996417839491 0.043050164262233806 0.14225644470382892 0.5096422033833402 5.507242963727585 4.077248564117316 20.94479944326131 -2.33720688001678 -3.1999897071959675 -2.461784451876237 -0.18950527085901808 -0.14938775892730743 -0.524525427528586 0.0858782218665699 6.475163416155409 -4.92852438339205 -5.55825015274553 4.876493203221923 4.555695176488419 -1.6651347074153569 0.31467496038513787 0.8562773786422416 3.097252699395212 10.834003682655359 8.326365771171423 0.13253824886199872 4.444643271603804 0.05569984424688648 4.52833823161059 -6.55641296946268 -8.859371464001006 -0.37276558469499627 1.5908101910750971 0.1365221291989754 0.907856746618716 13.038215648358893 -3.6635911326958674 -0.09059931468689185 0.1879976390204269 0.1961006034341872 -2.479004867831559 -4.73902920781531 6.510921835634683 0.18610999173064796 1.0672203914320062 0.04687440678564206
